<svg xmlns="http://www.w3.org/2000/svg" viewBox="0 0 59 43" width="472" height="344" shape-rendering="crispEdges" xmlns:c2pa="http://c2pa.org/manifest"><metadata><c2pa:manifest>AAAWgmp1bWIAAAAeanVtZGMycGEAEQAQgAAAqgA4m3EDYzJwYQAAABZcanVtYgAAAEdqdW1kYzJtYQARABCAAACqADibcQN1cm46YzJwYTo2MmNlNzM3OS1hMjM5LTQ2NzQtYmNiZi1hYzYxY2MwOTNjMTMAAAADl2p1bWIAAAApanVtZGMyYXMAEQAQgAAAqgA4m3EDYzJwYS5hc3NlcnRpb25zAAAAALxqdW1iAAAARGp1bWRjYm9yABEAEIAAAKoAOJtxE2MycGEuaW5ncmVkaWVudC52MwAAAAAYYzJzaMccENeZz097ri8sd8xXMsMAAABwY2JvcqNpZGM6Zm9ybWF0bWltYWdlL3N2Zyt4bWxqaW5zdGFuY2VJRHgseG1wOmlpZDpkM2IzODEzNS1iOWNkLTQ3YmEtYmVmOS1iYzZmMzdkZDZhNzRscmVsYXRpb25zaGlwaHBhcmVudE9mAAAB4mp1bWIAAABBanVtZGNib3IAEQAQgAAAqgA4m3ETYzJwYS5hY3Rpb25zLnYyAAAAABhjMnNoUNX26GQ2MOQy5NPlRTBgHAAAAZljYm9yomdhY3Rpb25zgqJmYWN0aW9ua2MycGEub3BlbmVkanBhcmFtZXRlcnOha2luZ3JlZGllbnRzgaJjdXJseC1zZWxmI2p1bWJmPWMycGEuYXNzZXJ0aW9ucy9jMnBhLmluZ3JlZGllbnQudjNkaGFzaFggHaTVEjlHCTCoX365awbanop/Q04negaCvrw13NFqUS2kZmFjdGlvbngdY29tLmFudGhyb3BpYy5jbGF1ZGUucHJvdmlkZWRqcGFyYW1ldGVyc6F4H2NvbS5hbnRocm9waWMub3JpZ2luLWNvbmZpZGVuY2VndW5rbm93bmtkZXNjcmlwdGlvbnhmQ2xhdWRlIHByb3ZpZGVkIHRoaXMgZmlsZSBhdCB0aGUgcmVxdWVzdCBvZiBhIHVzZXIgYW5kIG1heSBoYXZlIGNyZWF0ZWQgb3IgbW9kaWZpZWQgdGhlIGZpbGUgY29udGVudHMubXNvZnR3YXJlQWdlbnShZG5hbWVmQ2xhdWRlcmFsbEFjdGlvbnNJbmNsdWRlZPUAAADIanVtYgAAAEBqdW1kY2JvcgARABCAAACqADibcRNjMnBhLmhhc2guZGF0YQAAAAAYYzJzaNpVyz6muqCmnl3etSYTZVgAAACAY2JvcqVjYWxnZnNoYTI1NmNwYWRNAAAAAAAAAAAAAAAAAGRoYXNoWCARh314ijcA1Po9i3vSPtleBOk+0uNJK3z+RdlVn/0UVWRuYW1lbmp1bWJmIG1hbmlmZXN0amV4Y2x1c2lvbnOBomVzdGFydBixZmxlbmd0aBkeBAAAAj5qdW1iAAAAJ2p1bWRjMmNsABEAEIAAAKoAOJtxA2MycGEuY2xhaW0udjIAAAACD2Nib3KlY2FsZ2ZzaGEyNTZpc2lnbmF0dXJleE1zZWxmI2p1bWJmPS9jMnBhL3VybjpjMnBhOjYyY2U3Mzc5LWEyMzktNDY3NC1iY2JmLWFjNjFjYzA5M2MxMy9jMnBhLnNpZ25hdHVyZWppbnN0YW5jZUlEeCx4bXA6aWlkOjYxYzM0ZDE0LTU3M2QtNGJhYy04MmJkLWVmZGIwODkwZWI5YnJjcmVhdGVkX2Fzc2VydGlvbnODomN1cmx4LXNlbGYjanVtYmY9YzJwYS5hc3NlcnRpb25zL2MycGEuaW5ncmVkaWVudC52M2RoYXNoWCAdpNUSOUcJMKhffrlrBtqein9DTid6BoK+vDXc0WpRLaJjdXJseCpzZWxmI2p1bWJmPWMycGEuYXNzZXJ0aW9ucy9jMnBhLmFjdGlvbnMudjJkaGFzaFggzQc49q0zZ48/Qro6FBb2FEGgl5rgdVZGQL1dUj2m9TmiY3VybHgpc2VsZiNqdW1iZj1jMnBhLmFzc2VydGlvbnMvYzJwYS5oYXNoLmRhdGFkaGFzaFggC2pV9aiodRkgqe4ZvXAvGruFI2aug+7MsNabYOHy+9V0Y2xhaW1fZ2VuZXJhdG9yX2luZm+jZG5hbWVvQW50aHJvcGljIEZpbGVzZ3ZlcnNpb25lMS4wLjBrc3BlY1ZlcnNpb25lMi40LjAAABA4anVtYgAAAChqdW1kYzJjcwARABCAAACqADibcQNjMnBhLnNpZ25hdHVyZQAAABAIY2JvctKEWQISogEmGCFZAgowggIGMIIBjaADAgECAhRA5aAK7sI50L64g/oGQgU9Z1UTADAKBggqhkjOPQQDAzBJMRcwFQYDVQQKEw5BbnRocm9waWMsIFBCQzEuMCwGA1UEAxMlQW50aHJvcGljIENvbnRlbnQgQ3JlZGVudGlhbHMgUm9vdCBDQTAeFw0yNjA4MDcxODQzNTZaFw0yODA4MDYxOTQzNTZaMEQxFzAVBgNVBAoTDkFudGhyb3BpYywgUEJDMSkwJwYDVQQDEyBBbnRocm9waWMgQ2xhdWRlIENvbnRlbnQgU2lnbmluZzBZMBMGByqGSM49AgEGCCqGSM49AwEHA0IABJh6CmvLUBgFFNU0vUKlOVtE6djd17L5SuwX0LemFisBM3dkd/3cyjxFA3Qo5S46fX0/ihY0VZ7mfb9KF703t5OjWDBWMA4GA1UdDwEB/wQEAwIHgDAVBgNVHSUEDjAMBgorBgEEAYPoXgIBMAwGA1UdEwEB/wQCMAAwHwYDVR0jBBgwFoAUzlHiBIFOZFsj+OPEz5o+nMHXXMIwCgYIKoZIzj0EAwMDZwAwZAIwMXMdFJ4BetLLVY7ORuE9noqbbAZOZn/aArXyTwFAZfKrPzxF2vPoJNf1+UCdg1XGAjBwX1zd9WGqYkqmL5SFqw1QySjr1zJfpJM9+1rdDwSPLMOPOjKuiXjoU/pUUeG9RwmhY3BhZFkNngAAAAAAAAAAAAAAAAAAAAAAAAAAAAAAAAAAAAAAAAAAAAAAAAAAAAAAAAAAAAAAAAAAAAAAAAAAAAAAAAAAAAAAAAAAAAAAAAAAAAAAAAAAAAAAAAAAAAAAAAAAAAAAAAAAAAAAAAAAAAAAAAAAAAAAAAAAAAAAAAAAAAAAAAAAAAAAAAAAAAAAAAAAAAAAAAAAAAAAAAAAAAAAAAAAAAAAAAAAAAAAAAAAAAAAAAAAAAAAAAAAAAAAAAAAAAAAAAAAAAAAAAAAAAAAAAAAAAAAAAAAAAAAAAAAAAAAAAAAAAAAAAAAAAAAAAAAAAAAAAAAAAAAAAAAAAAAAAAAAAAAAAAAAAAAAAAAAAAAAAAAAAAAAAAAAAAAAAAAAAAAAAAAAAAAAAAAAAAAAAAAAAAAAAAAAAAAAAAAAAAAAAAAAAAAAAAAAAAAAAAAAAAAAAAAAAAAAAAAAAAAAAAAAAAAAAAAAAAAAAAAAAAAAAAAAAAAAAAAAAAAAAAAAAAAAAAAAAAAAAAAAAAAAAAAAAAAAAAAAAAAAAAAAAAAAAAAAAAAAAAAAAAAAAAAAAAAAAAAAAAAAAAAAAAAAAAAAAAAAAAAAAAAAAAAAAAAAAAAAAAAAAAAAAAAAAAAAAAAAAAAAAAAAAAAAAAAAAAAAAAAAAAAAAAAAAAAAAAAAAAAAAAAAAAAAAAAAAAAAAAAAAAAAAAAAAAAAAAAAAAAAAAAAAAAAAAAAAAAAAAAAAAAAAAAAAAAAAAAAAAAAAAAAAAAAAAAAAAAAAAAAAAAAAAAAAAAAAAAAAAAAAAAAAAAAAAAAAAAAAAAAAAAAAAAAAAAAAAAAAAAAAAAAAAAAAAAAAAAAAAAAAAAAAAAAAAAAAAAAAAAAAAAAAAAAAAAAAAAAAAAAAAAAAAAAAAAAAAAAAAAAAAAAAAAAAAAAAAAAAAAAAAAAAAAAAAAAAAAAAAAAAAAAAAAAAAAAAAAAAAAAAAAAAAAAAAAAAAAAAAAAAAAAAAAAAAAAAAAAAAAAAAAAAAAAAAAAAAAAAAAAAAAAAAAAAAAAAAAAAAAAAAAAAAAAAAAAAAAAAAAAAAAAAAAAAAAAAAAAAAAAAAAAAAAAAAAAAAAAAAAAAAAAAAAAAAAAAAAAAAAAAAAAAAAAAAAAAAAAAAAAAAAAAAAAAAAAAAAAAAAAAAAAAAAAAAAAAAAAAAAAAAAAAAAAAAAAAAAAAAAAAAAAAAAAAAAAAAAAAAAAAAAAAAAAAAAAAAAAAAAAAAAAAAAAAAAAAAAAAAAAAAAAAAAAAAAAAAAAAAAAAAAAAAAAAAAAAAAAAAAAAAAAAAAAAAAAAAAAAAAAAAAAAAAAAAAAAAAAAAAAAAAAAAAAAAAAAAAAAAAAAAAAAAAAAAAAAAAAAAAAAAAAAAAAAAAAAAAAAAAAAAAAAAAAAAAAAAAAAAAAAAAAAAAAAAAAAAAAAAAAAAAAAAAAAAAAAAAAAAAAAAAAAAAAAAAAAAAAAAAAAAAAAAAAAAAAAAAAAAAAAAAAAAAAAAAAAAAAAAAAAAAAAAAAAAAAAAAAAAAAAAAAAAAAAAAAAAAAAAAAAAAAAAAAAAAAAAAAAAAAAAAAAAAAAAAAAAAAAAAAAAAAAAAAAAAAAAAAAAAAAAAAAAAAAAAAAAAAAAAAAAAAAAAAAAAAAAAAAAAAAAAAAAAAAAAAAAAAAAAAAAAAAAAAAAAAAAAAAAAAAAAAAAAAAAAAAAAAAAAAAAAAAAAAAAAAAAAAAAAAAAAAAAAAAAAAAAAAAAAAAAAAAAAAAAAAAAAAAAAAAAAAAAAAAAAAAAAAAAAAAAAAAAAAAAAAAAAAAAAAAAAAAAAAAAAAAAAAAAAAAAAAAAAAAAAAAAAAAAAAAAAAAAAAAAAAAAAAAAAAAAAAAAAAAAAAAAAAAAAAAAAAAAAAAAAAAAAAAAAAAAAAAAAAAAAAAAAAAAAAAAAAAAAAAAAAAAAAAAAAAAAAAAAAAAAAAAAAAAAAAAAAAAAAAAAAAAAAAAAAAAAAAAAAAAAAAAAAAAAAAAAAAAAAAAAAAAAAAAAAAAAAAAAAAAAAAAAAAAAAAAAAAAAAAAAAAAAAAAAAAAAAAAAAAAAAAAAAAAAAAAAAAAAAAAAAAAAAAAAAAAAAAAAAAAAAAAAAAAAAAAAAAAAAAAAAAAAAAAAAAAAAAAAAAAAAAAAAAAAAAAAAAAAAAAAAAAAAAAAAAAAAAAAAAAAAAAAAAAAAAAAAAAAAAAAAAAAAAAAAAAAAAAAAAAAAAAAAAAAAAAAAAAAAAAAAAAAAAAAAAAAAAAAAAAAAAAAAAAAAAAAAAAAAAAAAAAAAAAAAAAAAAAAAAAAAAAAAAAAAAAAAAAAAAAAAAAAAAAAAAAAAAAAAAAAAAAAAAAAAAAAAAAAAAAAAAAAAAAAAAAAAAAAAAAAAAAAAAAAAAAAAAAAAAAAAAAAAAAAAAAAAAAAAAAAAAAAAAAAAAAAAAAAAAAAAAAAAAAAAAAAAAAAAAAAAAAAAAAAAAAAAAAAAAAAAAAAAAAAAAAAAAAAAAAAAAAAAAAAAAAAAAAAAAAAAAAAAAAAAAAAAAAAAAAAAAAAAAAAAAAAAAAAAAAAAAAAAAAAAAAAAAAAAAAAAAAAAAAAAAAAAAAAAAAAAAAAAAAAAAAAAAAAAAAAAAAAAAAAAAAAAAAAAAAAAAAAAAAAAAAAAAAAAAAAAAAAAAAAAAAAAAAAAAAAAAAAAAAAAAAAAAAAAAAAAAAAAAAAAAAAAAAAAAAAAAAAAAAAAAAAAAAAAAAAAAAAAAAAAAAAAAAAAAAAAAAAAAAAAAAAAAAAAAAAAAAAAAAAAAAAAAAAAAAAAAAAAAAAAAAAAAAAAAAAAAAAAAAAAAAAAAAAAAAAAAAAAAAAAAAAAAAAAAAAAAAAAAAAAAAAAAAAAAAAAAAAAAAAAAAAAAAAAAAAAAAAAAAAAAAAAAAAAAAAAAAAAAAAAAAAAAAAAAAAAAAAAAAAAAAAAAAAAAAAAAAAAAAAAAAAAAAAAAAAAAAAAAAAAAAAAAAAAAAAAAAAAAAAAAAAAAAAAAAAAAAAAAAAAAAAAAAAAAAAAAAAAAAAAAAAAAAAAAAAAAAAAAAAAAAAAAAAAAAAAAAAAAAAAAAAAAAAAAAAAAAAAAAAAAAAAAAAAAAAAAAAAAAAAAAAAAAAAAAAAAAAAAAAAAAAAAAAAAAAAAAAAAAAAAAAAAAAAAAAAAAAAAAAAAAAAAAAAAAAAAAAAAAAAAAAAAAAAAAAAAAAAAAAAAAAAAAAAAAAAAAAAAAAAAAAAAAAAAAAAAAAAAAAAAAAAAAAAAAAAAAAAAAAAAAAAAAAAAAAAAAAAAAAAAAAAAAAAAAAAAAAAAAAAAAAAAAAAAAAAAAAAAAAAAAAAAAAAAAAAAAAAAAAAAAAAAAAAAAAAAAAAAAAAAAAAAAAAAAAAAAAAAAAAAAAAAAAAAAAAAAAAAAAAAAAAAAAAAAAAAAAAAAAAAAAAAAAAAAAAAAAAAAAAAAAAAAAAAAAAAAAAAAAAAAAAAAAAAAAAAAAAAAAAAAAAAAAAAAAAAAAAAAAAAAAAAAAAAAAAAAAAAAAAAAAAAAAAAAAAAAAAAAAAAAAAAAAAAAAAAAAAAAAAAAAAAAAAAAAAAAAAAAAAAAAAAAAAAAAAAAAAAAAAAAAAAAAAAAAAAAAAAAAAAAAAAAAAAAAAAAAAAAAAAAAAAAAAAAAAAAAAAAAAAAAAAAAAAAAAAAAAAAAAAAAAAAAAAAAAAAAAAAAAAAAAAAAAAAAAAAAAAAAAAAAAAAAAAAAAAAAAAAAAAAAAAAAAAAAAAAAAAAAAAAAAAAAAAAAAAAAAAAAAAAAAAAAAAAAAAAAAAAAAAAAAAAAAAAAAAAAAAAAAAAAAAAAAAAAAAAAAAAAAAAAAAAAAAAAAAAAAAAAAAAAAAAAAAAAAAAAAAAAAAAAAAAAAAAAAAAAAAAAAAAAAAAAAAAAAAAAAAAAAAAAAAAAAAAAAAAAAAAAAAAAAAAAAAAAAAAAAAAAAAAAAAAAAAAAAAAAAAAAAAAAAAAAAAAAAAAAAAAAAAAAAAAAAAAAAAAAAAAAAAAAAAAAAAAAAAAAAAAAAAAAAAAAAAAAAAAAAAAAAAAAAAAAAAAAAAAAAAAAAAAAAAAAAAAAAAAAAAAAAAAAAAAAAAAAAAAAAAAAAAAAAAAAAAAAAAAAAAAAAAAAAAAAAAAAAAAAAAAAAAAAAAAAAAAAAAAAAAAAAAAAAAAAAAAAAAAAAAAAAAAAAAAAAAAAAAAAAAAAAAAAAAAAAAAAAAAAAAAAAAAAAAAAAAAAAAAAAAAAAAAAAAAAAAAAAAAAAAAAAAAAAAAAAAAAAAAAAAAAAAAAAAAAAAAAAAAAAAAAAAAAAAAAAAAAAAAAAAAAAAAAAAAAAAAAAAAAAAAAAAAAAAAAAAAAAAAAAAAAAAAAAAAAAAAAAAAAAAAAAAAAAAAAAAAAAAAAAAAAAAAAAAAAAAAAAAAAAAAAAAAAAAAAAAAAAAAAAAAAAAAAAAAAAAAAAAAAAAAAAAAAAAAAAAAAAAAAAAAAAAAAAAAAAAAAAAAAAAAAAAAAAAAAAAAAAAAAAAAAAAAAAAAAAAAAAAAAAAAAAAAAAPZYQGclmcBy8eiohX8S3xCC3pHhxGY6VbDW9u8FY7i/fWucCdHHJO5fWGDxMbQeP7PbSgD9+qlqvtC+KgjlP7Cie90=</c2pa:manifest></metadata>
  <title>Octet — coding</title>
  <path fill="#06090d" d="M22 15h1v1h-1z"></path>
  <path fill="#5a1626" d="M17 18h1v1h-1zM19 21h1v1h-1zM44 21h1v1h-1zM20 22h1v1h-1zM21 23h1v1h-1zM36 23h1v1h-1zM21 24h1v1h-1zM39 24h1v1h-1zM38 25h2v1h-2zM38 26h2v1h-2zM43 26h2v1h-2zM19 27h1v1h-1zM38 27h1v1h-1zM17 28h1v1h-1zM38 28h1v1h-1zM46 28h1v1h-1zM16 29h1v1h-1zM38 29h2v1h-2zM14 30h2v1h-2zM20 33h1v1h-1zM43 33h1v1h-1zM15 34h1v1h-1zM42 34h1v1h-1zM16 35h1v1h-1zM27 35h2v1h-2zM33 35h1v1h-1zM25 37h1v1h-1zM40 37h1v1h-1z"></path>
  <path fill="#82192f" d="M39 18h1v1h-1zM18 19h1v1h-1zM19 20h1v1h-1zM20 24h1v1h-1zM19 25h2v1h-2zM48 25h1v1h-1zM9 26h1v1h-1zM19 26h2v1h-2zM48 26h1v1h-1zM10 27h1v1h-1zM17 27h2v1h-2zM47 27h1v1h-1zM11 28h1v1h-1zM16 28h1v1h-1zM21 28h1v1h-1zM39 28h1v1h-1zM12 29h2v1h-2zM15 29h1v1h-1zM43 32h1v1h-1zM44 33h2v1h-2zM16 34h1v1h-1zM44 34h2v1h-2zM47 34h1v1h-1zM26 35h1v1h-1zM43 35h3v1h-3zM15 36h2v1h-2zM26 36h1v1h-1zM29 36h1v1h-1zM41 36h1v1h-1zM43 36h3v1h-3zM12 37h4v1h-4zM19 37h2v1h-2zM31 37h1v1h-1zM21 38h4v1h-4zM31 38h2v1h-2zM38 38h2v1h-2zM33 39h5v1h-5z"></path>
  <path fill="#c42b40" d="M24 2h10v1h-10zM24 3h10v1h-10zM35 3h2v1h-2zM25 4h12v1h-12zM23 5h15v1h-15zM23 6h17v1h-17zM21 7h19v1h-19zM19 8h21v1h-21zM18 9h23v1h-23zM18 10h23v1h-23zM15 11h26v1h-26zM15 12h6v1h-6zM23 12h11v1h-11zM36 12h5v1h-5zM15 13h8v1h-8zM25 13h16v1h-16zM15 14h26v1h-26zM15 15h6v1h-6zM24 15h10v1h-10zM37 15h4v1h-4zM16 16h5v1h-5zM26 16h6v1h-6zM37 16h3v1h-3zM16 17h4v1h-4zM26 17h6v1h-6zM38 17h2v1h-2zM18 18h2v1h-2zM26 18h6v1h-6zM38 18h1v1h-1zM19 19h1v1h-1zM26 19h6v1h-6zM37 19h2v1h-2zM12 20h3v1h-3zM20 20h1v1h-1zM26 20h6v1h-6zM37 20h2v1h-2zM44 20h2v1h-2zM11 21h2v1h-2zM14 21h1v1h-1zM20 21h2v1h-2zM26 21h6v1h-6zM36 21h2v1h-2zM43 21h1v1h-1zM45 21h2v1h-2zM10 22h3v1h-3zM14 22h1v1h-1zM21 22h2v1h-2zM25 22h3v1h-3zM30 22h3v1h-3zM35 22h2v1h-2zM42 22h2v1h-2zM45 22h3v1h-3zM10 23h3v1h-3zM22 23h14v1h-14zM43 23h1v1h-1zM45 23h3v1h-3zM10 24h4v1h-4zM17 24h3v1h-3zM45 24h3v1h-3zM9 25h6v1h-6zM16 25h3v1h-3zM44 25h4v1h-4zM10 26h9v1h-9zM45 26h3v1h-3zM11 27h6v1h-6zM39 27h4v1h-4zM46 27h1v1h-1zM12 28h4v1h-4zM40 28h4v1h-4zM14 29h1v1h-1zM19 29h2v1h-2zM41 29h5v1h-5zM18 30h4v1h-4zM42 30h4v1h-4zM12 31h2v1h-2zM18 31h1v1h-1zM20 31h1v1h-1zM38 31h1v1h-1zM43 31h4v1h-4zM12 32h2v1h-2zM18 32h1v1h-1zM37 32h3v1h-3zM44 32h3v1h-3zM11 33h2v1h-2zM18 33h2v1h-2zM36 33h5v1h-5zM46 33h2v1h-2zM11 34h2v1h-2zM17 34h4v1h-4zM39 34h2v1h-2zM46 34h1v1h-1zM11 35h5v1h-5zM17 35h9v1h-9zM29 35h4v1h-4zM38 35h4v1h-4zM46 35h1v1h-1zM13 36h2v1h-2zM18 36h1v1h-1zM21 36h5v1h-5zM30 36h4v1h-4zM36 36h3v1h-3zM23 37h2v1h-2zM32 37h8v1h-8zM33 38h3v1h-3z"></path>
  <path fill="#f56a4e" d="M20 4h5v1h-5zM19 5h4v1h-4zM18 6h5v1h-5zM18 7h3v1h-3zM18 8h1v1h-1zM16 9h2v1h-2zM16 10h2v1h-2zM11 19h4v1h-4zM43 19h4v1h-4zM10 20h2v1h-2zM15 20h1v1h-1zM42 20h2v1h-2zM46 20h2v1h-2zM9 21h2v1h-2zM15 21h1v1h-1zM42 21h1v1h-1zM47 21h2v1h-2zM9 22h1v1h-1zM48 22h1v1h-1zM9 23h1v1h-1zM17 23h3v1h-3zM48 23h1v1h-1zM9 24h1v1h-1zM16 24h1v1h-1zM48 24h1v1h-1zM15 25h1v1h-1zM40 26h3v1h-3zM43 27h2v1h-2zM18 28h3v1h-3zM44 28h2v1h-2zM17 29h2v1h-2zM21 29h1v1h-1zM46 29h1v1h-1zM17 30h1v1h-1zM37 30h4v1h-4zM46 30h2v1h-2zM11 31h1v1h-1zM16 31h2v1h-2zM36 31h2v1h-2zM39 31h2v1h-2zM47 31h1v1h-1zM10 32h2v1h-2zM16 32h2v1h-2zM36 32h1v1h-1zM40 32h2v1h-2zM47 32h1v1h-1zM10 33h1v1h-1zM16 33h2v1h-2zM41 33h1v1h-1zM10 34h1v1h-1zM41 34h1v1h-1zM10 35h1v1h-1zM11 36h2v1h-2zM19 36h2v1h-2zM39 36h2v1h-2zM21 37h2v1h-2zM36 38h2v1h-2z"></path>
  <path fill="#f6debf" d="M22 16h2v1h-2zM34 16h2v1h-2zM21 17h2v1h-2zM35 17h2v1h-2zM21 18h2v1h-2zM25 18h1v1h-1zM32 18h1v1h-1zM35 18h2v1h-2zM21 19h2v1h-2zM35 19h2v1h-2zM21 20h2v1h-2zM35 20h2v1h-2zM22 21h2v1h-2zM34 21h2v1h-2zM23 22h2v1h-2zM33 22h2v1h-2zM24 28h1v1h-1zM25 29h1v1h-1zM26 30h1v1h-1zM25 31h1v1h-1zM24 32h1v1h-1zM28 32h2v1h-2z"></path>
  <path fill="#7f756b" d="M22 24h16v1h-16zM21 25h1v1h-1zM21 26h1v1h-1zM21 27h1v1h-1z"></path>
  <path fill="#0e1014" d="M21 12h2v1h-2zM34 12h2v1h-2zM23 13h2v1h-2zM21 15h1v1h-1zM23 15h1v1h-1zM34 15h3v1h-3zM21 16h1v1h-1zM24 16h2v1h-2zM32 16h2v1h-2zM36 16h1v1h-1zM20 17h1v1h-1zM23 17h3v1h-3zM32 17h3v1h-3zM37 17h1v1h-1zM20 18h1v1h-1zM23 18h2v1h-2zM33 18h2v1h-2zM37 18h1v1h-1zM20 19h1v1h-1zM23 19h3v1h-3zM32 19h3v1h-3zM23 20h3v1h-3zM32 20h3v1h-3zM24 21h2v1h-2zM32 21h2v1h-2zM28 22h2v1h-2zM20 23h1v1h-1zM22 25h16v1h-16zM22 26h16v1h-16zM20 27h1v1h-1zM22 27h16v1h-16zM45 27h1v1h-1zM22 28h2v1h-2zM25 28h13v1h-13zM22 29h3v1h-3zM26 29h12v1h-12zM40 29h1v1h-1zM16 30h1v1h-1zM22 30h4v1h-4zM27 30h10v1h-10zM41 30h1v1h-1zM19 31h1v1h-1zM21 31h4v1h-4zM26 31h10v1h-10zM41 31h2v1h-2zM19 32h5v1h-5zM25 32h3v1h-3zM30 32h6v1h-6zM42 32h1v1h-1zM21 33h15v1h-15zM42 33h1v1h-1zM21 34h18v1h-18zM43 34h1v1h-1zM34 35h4v1h-4zM34 36h2v1h-2z"></path>
</svg>